PathFileType	4	(X/Y/Z)	63_2_57_p0_0-225_filt_butterworth.trc
DataRate	CameraRate	NumFrames	NumMarkers	Units	OrigDataRate	OrigDataStartFrame	OrigNumFrames
59.0	59.0	5	27	m	59.0	28	225
Frame#	Time	RHip			RKnee			RAnkle			RBigToe			RSmallToe			RHeel			LHip			LKnee			LAnkle			LBigToe			LSmallToe			LHeel			Neck			Head			Nose			RShoulder			RElbow			RWrist			RThumb			RIndex			RPinky			LShoulder			LElbow			LWrist			LThumb			LIndex			LPinky			
		X1	Y1	Z1	X2	Y2	Z2	X3	Y3	Z3	X4	Y4	Z4	X5	Y5	Z5	X6	Y6	Z6	X7	Y7	Z7	X8	Y8	Z8	X9	Y9	Z9	X10	Y10	Z10	X11	Y11	Z11	X12	Y12	Z12	X13	Y13	Z13	X14	Y14	Z14	X15	Y15	Z15	X16	Y16	Z16	X17	Y17	Z17	X18	Y18	Z18	X19	Y19	Z19	X20	Y20	Z20	X21	Y21	Z21	X22	Y22	Z22	X23	Y23	Z23	X24	Y24	Z24	X25	Y25	Z25	X26	Y26	Z26	X27	Y27	Z27	
28	0.4745762711864407	0.29873978276040103	0.5819813015203561	0.7736243927949786	0.29000577355983614	0.6430567193603062	1.1516659225345385	0.33768604034943306	0.8622142936643092	1.5784155988931148	0.31080983657711525	0.6909588970346736	1.6223278240793002	0.37175561874787466	0.6992923062635671	1.6110974515825363	0.3218333835610561	0.9511897184428217	1.623633413792274	0.10253412672415499	0.5978288684117281	0.7809077369835279	0.12195043082518221	0.7024179691101364	1.1604567170993447	0.13925705184155956	0.85053084038103	1.565964029436199	0.1409108619520032	0.6621895037513865	1.5975147084234709	0.08344733572774472	0.7112016738666186	1.6053069478334603	0.16707365454021125	0.9269237760976127	1.6263390075101145	0.17681716849081697	0.44308215431933756	0.22624541030901313	0.1879670483189765	0.30523782524022786	0.0054120882676821245	0.17864938335310743	0.26942026429110927	0.14547916936519578	0.32195807707703095	0.42006337722345155	0.31673367197561486	0.347956714329213	0.46971096032127435	0.5865975325335122	0.27806060198513427	0.4119447767775244	0.793757216977639	0.17669816260351082	0.41185634857075437	0.8710595426112644	0.17707315727226475	0.41469749117909516	0.8876490868378009	0.20008369561298106	0.4378890598311212	0.8992344145077101	0.03628131485405483	0.45374263312528806	0.31611191902857966	0.029676449943261345	0.47795263086005607	0.5934887422416312	0.09856340423845347	0.4249199423713904	0.7864750166857049	0.1716980030178874	0.4382254366476346	0.864272644042233	0.1753708074584577	0.43566600096814917	0.886201022836815	0.15624258652549133	0.49134683193770945	0.9008667189134252
29	0.4915254237288136	0.29822175312749344	0.5821622829021865	0.7743016599585011	0.2900528248429209	0.6433991477521914	1.1544831813425893	0.33741935237757975	0.8630302509708604	1.5806958410561898	0.31103869309288223	0.69105801173417	1.6227198471370947	0.372339725758838	0.7005291076743559	1.6110005571415822	0.3207582792562668	0.9534567954846793	1.6250810063491452	0.09780328083430792	0.6030951494916365	0.7813456555480696	0.11997512692383074	0.703620971329107	1.1620414280217595	0.1390489665617574	0.8505563984324169	1.5669863961982209	0.1391640146241972	0.6615538599517057	1.5971503615842069	0.08345556470405666	0.7110208585539557	1.6050319319662827	0.1668159056248706	0.9272857339473932	1.628315878103308	0.17378885667204116	0.4463078162501795	0.22658658361584832	0.18673789503406962	0.30202213325528193	0.005407778470680979	0.17524089120378006	0.2624629632580683	0.1476588780362159	0.3182005680313906	0.42079760071076466	0.31668659954373796	0.3463872606659083	0.4686155408998689	0.584120505261965	0.2860452363704641	0.4168978351448268	0.7995237448190566	0.18412321739394166	0.4090047854943445	0.8823459117714096	0.19173034830908312	0.41484837938314223	0.901819954982924	0.22087848191781326	0.45577387041854217	0.9101843167061163	0.03332316694638431	0.44371982084069717	0.316564563523164	0.024107980922822892	0.4808027338797182	0.5932386256196812	0.08702416062201238	0.4279724482977444	0.7880464321319198	0.1588073615465096	0.4567241092483073	0.8717401055018574	0.1588701876033897	0.444520222330059	0.8965150327117292	0.13402570235591174	0.5040935128396297	0.903731739537447
30	0.5084745762711864	0.29812102310418237	0.5825783320288871	0.7754306531292702	0.29016523039628955	0.643537247039941	1.15698796505291	0.3373488971412821	0.8631416215879433	1.582395263267474	0.3109806884470491	0.6905976319588908	1.622500597860047	0.37355155918959054	0.7007216990366099	1.6101834111016906	0.3212035707659862	0.9631310043756793	1.6280745308717746	0.09382902793775533	0.6062959867187837	0.7832471491260101	0.11835621743792894	0.7081601712481214	1.1640877952838153	0.13878502275324975	0.8508466926207293	1.5688633256383941	0.13801757732361739	0.6612873178053987	1.5974276144116737	0.08347315582459947	0.7108395114899986	1.6048907787950597	0.16681784092981355	0.927188467865704	1.6302333473447177	0.1712761724019134	0.4473783944709965	0.2270649497087029	0.18538310586046408	0.29784311072489505	0.005310229483872625	0.17217211163800095	0.2574648322108355	0.14891422042099098	0.3160735705484621	0.4230815056019565	0.3163890784921402	0.3448942301222817	0.468193950192726	0.582766066119219	0.2951008427508247	0.42128787420899144	0.8043954296235611	0.19512742876555753	0.4116353723319738	0.8930249374778281	0.2108547304446103	0.42343936247853653	0.915746193382085	0.24415937854595013	0.4732520520553985	0.9216293148969779	0.030334459791800075	0.435698445370581	0.31754200000213484	0.01815182922841689	0.48325241940359115	0.5928356597806324	0.07746880749699803	0.4407670233005173	0.7897550489904541	0.14454798071984998	0.4781030535365185	0.8770633674254031	0.13721023632227536	0.45683003628794844	0.905852544425135	0.10803227411291519	0.5096059831357197	0.904775276459219
31	0.5254237288135594	0.29805329947013887	0.582904634143217	0.7767103321617437	0.29021069605394306	0.6432645266754343	1.1575300260128	0.337447107503411	0.8630702429282657	1.582187088027423	0.31083618945724334	0.6902748490467635	1.6223248342493481	0.37495437330893916	0.700564542348489	1.6095442787359682	0.32343160734453824	0.974775252783553	1.63111363058729	0.09126635594728534	0.6071035315657172	0.7854695023407429	0.11739817107837547	0.7144413129072102	1.1661488357244043	0.13862895316273838	0.8513033337561027	1.5714485378262195	0.1378749203732882	0.6616821579262337	1.5991398128528016	0.08348101566515229	0.7106350297103124	1.6048327661407953	0.16682992086388693	0.9273656374221232	1.632205851219764	0.16868816498781108	0.4471262759406167	0.2273982001255676	0.18357095665716752	0.29475037844764906	0.005372348226122896	0.16960535707742067	0.2545324512972249	0.14946472839570635	0.3149300974171114	0.4248112304687301	0.3161124057335073	0.34368548768950474	0.4683894023404113	0.5832735675840893	0.30403869733693384	0.424165110351967	0.8079399356465028	0.20988173026953474	0.4217922468114687	0.9022639982105506	0.23232363815396423	0.43367355221594994	0.9263172418649053	0.2646956245010415	0.4784985113407552	0.9311939204982445	0.026476699526389293	0.4302438728154973	0.31918786736435995	0.011345353768811201	0.48614908427349934	0.592766844844601	0.0684543748314194	0.4596419859255581	0.7918927851338055	0.1330661735268509	0.4974691371225406	0.8807590937843692	0.11740306212634838	0.46732787364170175	0.9109675122721361	0.08453331414969899	0.5113285904468513	0.9065248996913533
32	0.5423728813559322	0.2978449610888575	0.581937539388129	0.77849671503691	0.2900999145434421	0.6424947425179334	1.1563362166428284	0.3377222257596795	0.8628694404408653	1.5803619305544037	0.31069614367787374	0.6905296414734946	1.622476064253702	0.37582371009429627	0.7003151605699984	1.609332329641519	0.32594323325691404	0.9825711669114963	1.6327604520089938	0.08992975631342984	0.6057716970007969	0.7877037634053414	0.11642021647579416	0.7195717578383599	1.1686746296957946	0.13862667262273232	0.8516961035836849	1.5736289050733863	0.1383366699050871	0.66246910573261	1.6024058820481208	0.08347074939584574	0.7105032194617452	1.6048643292305664	0.1667584206806727	0.9277650767829818	1.6336130099960309	0.16558765383911242	0.44669377935662186	0.22756725082640983	0.18072496094773963	0.29346714622682785	0.005794806119917253	0.16705269895583136	0.2534249152785125	0.14965072326769485	0.3139914585834979	0.4253946858505618	0.3160370052628577	0.34297136297470765	0.4686197993448242	0.5845093307112077	0.3122076702772989	0.4300524648751282	0.8100348579017876	0.22699928129734748	0.4411885681823592	0.9099656981651771	0.2530513760160733	0.44315912952372977	0.9329312399811196	0.28185339822711575	0.47177800156622807	0.9370530451078355	0.022003518933821756	0.42715476045179135	0.3207030621929862	0.0025582880931368994	0.49199980395558385	0.5931936224460487	0.05965147179850501	0.47859401124456596	0.7941935831016593	0.12653333259388352	0.5107692724688507	0.883004923668615	0.1047473095900567	0.473304016250921	0.9111370274539893	0.06716774591587539	0.5139788336774338	0.9092223074161527
